<?xml version="1.0" encoding="iso-8859-1"?>
<!-- Generator: Adobe Illustrator 19.0.0, SVG Export Plug-In . SVG Version: 6.00 Build 0)  -->
<!-- License: CC0. Made by SVG Repo: https://www.svgrepo.com/svg/74875/calendar -->
<svg version="1.1" id="Layer_1" xmlns="http://www.w3.org/2000/svg" xmlns:xlink="http://www.w3.org/1999/xlink" x="0px" y="0px"
	 viewBox="0 0 325.678 325.678" style="enable-background:new 0 0 325.678 325.678;" xml:space="preserve">
<g>
	<g>
		<g>
			<path d="M298.178,49.221h-16.339v-7.619c0-12.665-10.304-22.969-22.969-22.969h-32.062c-12.665,0-22.969,10.304-22.969,22.969
				v7.619h-82v-7.619c0-12.665-10.304-22.969-22.969-22.969H66.808c-12.665,0-22.969,10.304-22.969,22.969v7.619H27.5
				c-15.164,0-27.5,12.337-27.5,27.5c0,9.251,0,193.506,0,202.824c0,15.163,12.336,27.5,27.5,27.5h270.678
				c15.163,0,27.5-12.337,27.5-27.5c0-9.321,0-193.579,0-202.824C325.678,61.558,313.341,49.221,298.178,49.221z M218.839,41.602
				c0-4.394,3.575-7.969,7.969-7.969h32.062c4.394,0,7.969,3.575,7.969,7.969v7.619h-48V41.602z M58.839,41.602
				c0-4.394,3.575-7.969,7.969-7.969H98.87c4.394,0,7.969,3.575,7.969,7.969v7.619h-48V41.602z M310.678,279.545
				c0,6.893-5.608,12.5-12.5,12.5H27.5c-6.892,0-12.5-5.607-12.5-12.5V117.633h295.678V279.545z M310.678,102.633H15V76.721
				c0-6.893,5.608-12.5,12.5-12.5c12.814,0,261.498,0,270.678,0c6.892,0,12.5,5.607,12.5,12.5V102.633z"/>
			<path d="M68.339,175.839c13.233,0,24-10.767,24-24c0-13.233-10.767-24-24-24c-13.233,0-24,10.767-24,24
				C44.339,165.072,55.105,175.839,68.339,175.839z M68.339,142.839c4.962,0,9,4.037,9,9s-4.038,9-9,9c-4.962,0-9-4.037-9-9
				S63.376,142.839,68.339,142.839z"/>
			<path d="M131.339,175.839c13.233,0,24-10.767,24-24c0-13.233-10.767-24-24-24c-13.233,0-24,10.767-24,24
				C107.339,165.072,118.105,175.839,131.339,175.839z M131.339,142.839c4.962,0,9,4.037,9,9s-4.038,9-9,9c-4.962,0-9-4.037-9-9
				S126.376,142.839,131.339,142.839z"/>
			<path d="M194.339,175.839c13.233,0,24-10.767,24-24c0-13.233-10.767-24-24-24c-13.233,0-24,10.767-24,24
				C170.339,165.072,181.105,175.839,194.339,175.839z M194.339,142.839c4.962,0,9,4.037,9,9s-4.038,9-9,9c-4.962,0-9-4.037-9-9
				S189.376,142.839,194.339,142.839z"/>
			<path d="M257.339,175.839c13.233,0,24-10.767,24-24c0-13.233-10.767-24-24-24c-13.233,0-24,10.767-24,24
				C233.339,165.072,244.105,175.839,257.339,175.839z M257.339,142.839c4.962,0,9,4.037,9,9s-4.038,9-9,9c-4.962,0-9-4.037-9-9
				S252.376,142.839,257.339,142.839z"/>
			<path d="M68.339,228.839c13.233,0,24-10.767,24-24c0-13.233-10.767-24-24-24c-13.233,0-24,10.767-24,24
				C44.339,218.072,55.105,228.839,68.339,228.839z M68.339,195.839c4.962,0,9,4.037,9,9s-4.038,9-9,9c-4.962,0-9-4.037-9-9
				S63.376,195.839,68.339,195.839z"/>
			<path d="M131.339,228.839c13.233,0,24-10.767,24-24c0-13.233-10.767-24-24-24c-13.233,0-24,10.767-24,24
				C107.339,218.072,118.105,228.839,131.339,228.839z M131.339,195.839c4.962,0,9,4.037,9,9s-4.038,9-9,9c-4.962,0-9-4.037-9-9
				S126.376,195.839,131.339,195.839z"/>
			<path d="M194.339,228.839c13.233,0,24-10.767,24-24c0-13.233-10.767-24-24-24c-13.233,0-24,10.767-24,24
				C170.339,218.072,181.105,228.839,194.339,228.839z M194.339,195.839c4.962,0,9,4.037,9,9s-4.038,9-9,9c-4.962,0-9-4.037-9-9
				S189.376,195.839,194.339,195.839z"/>
			<path d="M257.339,228.839c13.233,0,24-10.767,24-24c0-13.233-10.767-24-24-24c-13.233,0-24,10.767-24,24
				C233.339,218.072,244.105,228.839,257.339,228.839z M257.339,195.839c4.962,0,9,4.037,9,9s-4.038,9-9,9c-4.962,0-9-4.037-9-9
				S252.376,195.839,257.339,195.839z"/>
			<path d="M68.339,281.839c13.233,0,24-10.767,24-24c0-13.233-10.767-24-24-24c-13.233,0-24,10.767-24,24
				C44.339,271.072,55.105,281.839,68.339,281.839z M68.339,248.839c4.962,0,9,4.037,9,9s-4.038,9-9,9c-4.962,0-9-4.037-9-9
				S63.376,248.839,68.339,248.839z"/>
			<path d="M131.339,281.839c13.233,0,24-10.767,24-24c0-13.233-10.767-24-24-24c-13.233,0-24,10.767-24,24
				C107.339,271.072,118.105,281.839,131.339,281.839z M131.339,248.839c4.962,0,9,4.037,9,9s-4.038,9-9,9c-4.962,0-9-4.037-9-9
				S126.376,248.839,131.339,248.839z"/>
			<path d="M194.339,281.839c13.233,0,24-10.767,24-24c0-13.233-10.767-24-24-24c-13.233,0-24,10.767-24,24
				C170.339,271.072,181.105,281.839,194.339,281.839z M194.339,248.839c4.962,0,9,4.037,9,9s-4.038,9-9,9c-4.962,0-9-4.037-9-9
				S189.376,248.839,194.339,248.839z"/>
			<path d="M257.339,281.839c13.233,0,24-10.767,24-24c0-13.233-10.767-24-24-24c-13.233,0-24,10.767-24,24
				C233.339,271.072,244.105,281.839,257.339,281.839z M257.339,248.839c4.962,0,9,4.037,9,9s-4.038,9-9,9c-4.962,0-9-4.037-9-9
				S252.376,248.839,257.339,248.839z"/>
		</g>
	</g>
</g>
</svg>
